<?xml version="1.0" encoding="UTF-8" standalone="no"?>
<svg width="600px" height="300px" viewBox="0 0 600 300" version="1.1" xmlns="http://www.w3.org/2000/svg" xmlns:xlink="http://www.w3.org/1999/xlink">
    <!-- Generator: Sketch 41.2 (35397) - http://www.bohemiancoding.com/sketch -->
    <title>of-logo</title>
    <desc>Created with Sketch.</desc>
    <defs></defs>
    <g id="Page-1" stroke="none" stroke-width="1" fill="none" fill-rule="evenodd">
        <g id="of-logo">
            <g id="Group" transform="translate(271.000000, 90.000000)" fill="#F5F5F5">
                <g id="Shape">
                    <path d="M4.38461538,55.6153846 L4.38461538,4.38461538 L12.9230769,4.38461538 L12.9230769,0.230769231 L0.230769231,0.230769231 L0.230769231,59.7692308 L12.9230769,59.7692308 L12.9230769,55.6153846 L4.38461538,55.6153846 Z M55.6153846,4.38461538 L55.6153846,55.6153846 L47.0769231,55.6153846 L47.0769231,59.7692308 L59.7692308,59.7692308 L59.7692308,0.230769231 L47.0769231,0.230769231 L47.0769231,4.38461538 L55.6153846,4.38461538 Z"></path>
                    <path d="M30.2307692,38.7692308 L30.2307692,38.7692308 C34.8461538,38.7692308 38.7692308,34.8461538 38.7692308,30.2307692 C38.7692308,25.3846154 34.8461538,21.6923077 30.2307692,21.6923077 C25.3846154,21.6923077 21.6923077,25.3846154 21.6923077,30.2307692 C21.6923077,34.8461538 25.3846154,38.7692308 30.2307692,38.7692308 L30.2307692,38.7692308 Z M30.2307692,42.9230769 L30.2307692,42.9230769 C23.0769231,42.9230769 17.3076923,37.1538462 17.3076923,30.2307692 C17.3076923,23.0769231 23.0769231,17.3076923 30.2307692,17.3076923 C37.1538462,17.3076923 42.9230769,23.0769231 42.9230769,30.2307692 C42.9230769,37.1538462 37.1538462,42.9230769 30.2307692,42.9230769 L30.2307692,42.9230769 Z"></path>
                </g>
            </g>
            <text id="Openframe-JavaScript" font-family="Lato-Regular, Lato" font-size="30" font-weight="normal" fill="#FFFFFF">
                <tspan x="111.89" y="221">Openframe JavaScript Client</tspan>
            </text>
        </g>
    </g>
</svg>